:SAMPLES-PER-SECOND 30
:FRAME-RANGE 1-3358
:FULLY-SPECIFIED
:DEGREES
315
root  8.45106 36.2137 4.38277 0.940735 38.8108 -4.70015
RightUpLeg  -10.3563 -7.13892 -5.03924
RightLeg  40.5668 -1.34362 -1.51716
RightFoot  -29.946 1.90904 12.8564
RightToes  -1.11029e-010 1.2921e-014 -6.02303e-014
Spine  6.64903 -0.297153 1.83008
Spine1  -0.299434 0.536248 -4.29223
HEad  -11.8956 -7.15611 3.94285
LeftShoulder1  2.04122 -11.3556 -6.46674
LeftArm  17.2747 -53.874 -72.0349
LeftForeArm  61.732 -0.895816 -13.2942
LeftHand  0.393288 9.3329 12.3839
RightShoulder  1.64087 7.64589 7.52472
RightArm  -16.7413 54.0498 55.198
RightForeArm  91.0425 -4.03113 1.30462
RightHand  1.23669 -10.315 -28.611
LeftUpLeg  -36.2118 -6.53144 29.3659
LeftLeg  57.1249 1.2684 2.65114
LeftFoot  -12.018 0.011052 -10.27
LeftToes  -1.90334e-010 -8.83595e-011 4.99953e-011
316
root  9.08274 34.8719 3.18537 0.818054 36.3267 -6.53564
RightUpLeg  -17.1391 -5.46083 -5.9311
RightLeg  49.8377 0.157448 -0.151589
RightFoot  -32.4769 2.47913 14.4139
RightToes  -1.11029e-010 1.2921e-014 -6.02303e-014
Spine  8.48872 -0.605016 0.247201
Spine1  0.829861 -0.144105 -3.38546
HEad  -17.353 -6.58234 6.07158
LeftShoulder1  2.0692 -12.2493 -5.76535
LeftArm  14.8914 -56.6691 -73.0707
LeftForeArm  61.6972 0.929481 -12.7044
LeftHand  0.397701 9.31149 12.5687
RightShoulder  1.64719 7.51744 7.78894
RightArm  -18.0099 55.3898 53.8071
RightForeArm  91.2849 -3.9173 0.698778
RightHand  1.28396 -10.2372 -30.0507
LeftUpLeg  -38.3897 -10.6093 35.4265
LeftLeg  56.8808 -3.01055 -4.43878
LeftFoot  -14.9141 -0.258413 -11.1149
LeftToes  -1.90334e-010 -8.83595e-011 4.99953e-011
317
root  10.3285 33.9755 2.28309 0.690247 36.4243 -7.5406
RightUpLeg  -18.7105 -8.45556 -8.85099
RightLeg  52.838 2.69861 3.44024
RightFoot  -34.2215 2.82155 15.0278
RightToes  -1.11029e-010 1.2921e-014 -6.02303e-014
Spine  9.25697 -1.59066 -1.88888
Spine1  1.75433 -1.80338 -1.08874
HEad  -20.0841 -6.96562 8.45349
LeftShoulder1  2.15951 -13.8445 -4.95659
LeftArm  15.2929 -58.9116 -74.043
LeftForeArm  60.263 2.07084 -12.6766
LeftHand  0.390748 9.30355 12.3984
RightShoulder  1.70221 7.46633 8.44385
RightArm  -19.3694 54.233 52.3589
RightForeArm  89.499 -3.9807 0.590535
RightHand  1.15731 -9.68665 -30.5296
LeftUpLeg  -39.686 -14.5856 37.3471
LeftLeg  56.7141 -9.76041 -15.0981
LeftFoot  -13.7194 -0.262839 -16.5046
LeftToes  -1.90334e-010 -8.83595e-011 4.99953e-011
318
root  12.0583 33.659 1.60013 0.905579 35.9579 -8.79376
RightUpLeg  -18.0543 -9.52251 -11.5143
RightLeg  51.0186 4.53553 5.63449
RightFoot  -33.3855 3.17398 17.354
RightToes  -1.11029e-010 1.2921e-014 -6.02303e-014
Spine  8.22586 -2.19669 -2.44357
Spine1  2.21823 -2.68884 0.222292
HEad  -19.2387 -8.79039 9.88096
LeftShoulder1  2.17739 -14.0407 -4.91119
LeftArm  17.0021 -60.4657 -78.6282
LeftForeArm  60.2144 3.41903 -12.2373
LeftHand  0.346946 9.1828 11.501
RightShoulder  1.7098 6.7502 9.78078
RightArm  -20.2061 51.6736 51.2086
RightForeArm  84.3309 -4.29236 1.05654
RightHand  0.899083 -8.77135 -30.1973
LeftUpLeg  -38.1768 -13.0147 34.902
LeftLeg  56.6158 -8.27406 -12.7737
LeftFoot  -22.5595 -2.28296 -24.2806
LeftToes  -1.90334e-010 -8.83595e-011 4.99953e-011
319
root  13.9636 34.1416 1.24171 1.25616 33.5663 -9.30872
RightUpLeg  -15.4581 -7.22773 -13.911
RightLeg  44.6448 5.63448 5.63671
RightFoot  -28.8061 3.02698 20.7846
RightToes  -1.11029e-010 1.2921e-014 -6.02303e-014
Spine  6.7126 -2.1683 -4.2688
Spine1  2.41135 -2.78077 0.152053
HEad  -16.8959 -10.3843 11.5398
LeftShoulder1  2.25062 -13.3319 -6.01338
LeftArm  19.7914 -60.5622 -82.994
LeftForeArm  60.5584 3.90695 -12.2369
LeftHand  0.332044 9.14928 11.162
RightShoulder  1.8144 6.47349 11.5081
RightArm  -21.5922 48.5787 51.1065
RightForeArm  84.3411 -4.22345 0.653191
RightHand  0.921377 -8.90086 -29.8366
LeftUpLeg  -34.3936 -10.7963 30.2955
LeftLeg  55.2025 -5.65359 -8.18456
LeftFoot  -26.9867 -2.51087 -19.2904
LeftToes  -1.90334e-010 -8.83595e-011 4.99953e-011
320
root  16.2664 35.0983 0.996423 1.07532 31.3194 -9.72768
RightUpLeg  -11.7188 -0.592631 -16.0622
RightLeg  36.5828 3.91233 2.8588
RightFoot  -19.7695 1.96205 27.9424
RightToes  -1.11029e-010 1.2921e-014 -6.02303e-014
Spine  5.44736 -2.22067 -3.97463
Spine1  1.96594 -2.72292 0.100353
HEad  -14.058 -12.7827 13.0161
LeftShoulder1  2.21697 -12.7976 -6.28595
LeftArm  22.7482 -59.8498 -86.0135
LeftForeArm  61.1698 3.51291 -12.6975
LeftHand  0.322458 9.23199 10.6697
RightShoulder  1.96297 6.45011 13.2481
RightArm  -23.3047 45.5243 50.0743
RightForeArm  85.0501 -4.04916 0.245697
RightHand  0.984493 -9.16861 -29.6325
LeftUpLeg  -30.3197 -11.1807 26.0502
LeftLeg  53.3791 -4.58511 -6.11532
LeftFoot  -27.6815 -2.16609 -16.151
LeftToes  -1.90334e-010 -8.83595e-011 4.99953e-011
321
root  18.7962 36.6729 1.02744 0.493958 26.8924 -10.9261
RightUpLeg  -9.81968 6.64977 -15.5384
RightLeg  30.2176 -2.64672 -1.90138
RightFoot  -5.68673 -1.04545 20.1826
RightToes  -1.11029e-010 1.2921e-014 -6.02303e-014
Spine  2.52115 -1.97389 -0.592118
Spine1  2.4238 -1.94106 -0.578402
HEad  -9.83765 -14.5228 11.4746
LeftShoulder1  2.0909 -12.0538 -6.11582
LeftArm  23.0918 -58.3806 -85.2305
LeftForeArm  61.1591 1.79586 -13.0003
LeftHand  0.274915 8.87252 10.1816
RightShoulder  2.00479 6.29705 14.0819
RightArm  -23.2756 43.7002 51.3264
RightForeArm  85.5881 -4.08078 0.141125
RightHand  0.844498 -8.69602 -29.1204
LeftUpLeg  -22.8658 -9.61603 21.6357
LeftLeg  47.2506 -2.34913 -2.29181
LeftFoot  -25.5285 -1.55726 -13.688
LeftToes  -1.90334e-010 -8.83595e-011 4.99953e-011
322
root  21.1051 38.3102 1.32271 0.390808 21.6882 -11.6056
RightUpLeg  -9.82778 9.00332 -12.8225
RightLeg  29.8906 -7.85079 -5.08715
RightFoot  -1.83947 -0.497808 5.83282
RightToes  -1.11029e-010 1.2921e-014 -6.02303e-014
Spine  -0.0996294 -1.87835 1.39312
Spine1  2.0458 -1.77444 0.0596981
HEad  -3.61973 -14.0881 8.00366
LeftShoulder1  1.9678 -10.9368 -6.34884
LeftArm  22.718 -57.3929 -82.3185
LeftForeArm  60.3891 0.918212 -13.2962
LeftHand  0.25374 8.78932 9.72775
RightShoulder  1.97498 6.38747 13.5282
RightArm  -21.5358 43.9588 53.5144
RightForeArm  85.7316 -4.15344 0.605481
RightHand  0.757058 -8.5176 -27.7401
LeftUpLeg  -15.6816 -8.31223 17.8123
LeftLeg  40.4052 0.270474 0.632177
LeftFoot  -19.8727 -0.915162 -13.8052
LeftToes  -1.90334e-010 -8.83595e-011 4.99953e-011
323
root  22.9317 39.7936 1.69945 0.679077 16.9599 -11.0784
RightUpLeg  -10.0213 4.68031 -9.95583
RightLeg  32.2609 -7.0821 -5.03734
RightFoot  -4.59154 -0.454207 7.16149
RightToes  -1.11029e-010 1.2921e-014 -6.02303e-014
Spine  -1.76986 -2.23176 0.39987
Spine1  1.9653 -2.26549 0.48053
HEad  -0.0367205 -11.9743 6.72536
LeftShoulder1  1.80219 -10.7297 -5.24977
LeftArm  19.8208 -57.9237 -79.2164
LeftForeArm  61.8413 2.57525 -13.0441
LeftHand  0.21117 8.55656 8.90772
RightShoulder  1.98281 6.5564 13.2323
RightArm  -20.3484 45.7004 55.7408
RightForeArm  85.8673 -4.13519 0.533877
RightHand  0.642794 -8.24604 -25.9878
LeftUpLeg  -11.5644 -5.34377 14.4208
LeftLeg  36.449 1.09035 1.23413
LeftFoot  -9.9789 0.251159 -16.0307
LeftToes  -1.90334e-010 -8.83595e-011 4.99953e-011
324
root  24.6745 41.0868 2.07012 0.828796 11.8554 -10.2413
RightUpLeg  -10.5117 -0.207033 -6.89629
RightLeg  35.7628 -3.05553 -2.62125
RightFoot  -4.85272 -0.435864 7.09613
RightToes  -1.11029e-010 1.2921e-014 -6.02303e-014
Spine  -2.30007 -2.36202 -0.640959
Spine1  2.06784 -2.47349 1.02227
HEad  0.509663 -10.0404 6.18625
LeftShoulder1  1.69993 -11.6535 -3.57821
LeftArm  17.0245 -59.4822 -76.374
LeftForeArm  61.955 5.77949 -12.6791
LeftHand  0.186524 8.51448 8.15553
RightShoulder  1.99916 7.14738 12.1527
RightArm  -19.6311 48.1945 58.2704
RightForeArm  87.1298 -3.95246 -0.205263
RightHand  0.671707 -8.58513 -24.4044
LeftUpLeg  -9.97597 -0.738644 11.9556
LeftLeg  35.5626 -0.435984 0.0307722
LeftFoot  2.31067 2.22451 -18.5613
LeftToes  -1.90334e-010 -8.83595e-011 4.99953e-011
325
root  26.4027 41.943 2.3868 1.07123 7.09807 -9.97565
RightUpLeg  -10.7712 -4.25122 -3.28036
RightLeg  38.49 -0.326053 -0.552785
RightFoot  -2.88982 -0.886848 11.6969
RightToes  -1.11029e-010 1.2921e-014 -6.02303e-014
Spine  -2.22999 -2.59939 -0.676904
Spine1  2.59758 -2.7482 1.70301
HEad  -1.5957 -8.74363 5.78563
LeftShoulder1  1.68531 -12.7127 -2.61992
LeftArm  13.7948 -61.3025 -73.6137
LeftForeArm  61.6789 6.99864 -12.207
LeftHand  0.166779 8.44934 7.60647
RightShoulder  1.98378 7.79838 10.7575
RightArm  -19.3047 50.7665 60.939
RightForeArm  88.6454 -3.67477 -1.42365
RightHand  0.737776 -9.03827 -23.5225
LeftUpLeg  -11.5476 2.1928 10.8927
LeftLeg  38.5445 -3.55095 -2.65717
LeftFoot  11.763 4.28375 -21.1048
LeftToes  -1.90334e-010 -8.83595e-011 4.99953e-011
326
root  28.1062 42.457 2.71022 1.7995 2.37856 -9.54955
RightUpLeg  -10.6958 -8.0296 -0.629338
RightLeg  39.4503 2.00347 1.48625
RightFoot  1.5538 -2.16422 19.0824
RightToes  -1.11029e-010 1.2921e-014 -6.02303e-014
Spine  -0.868579 -2.84677 -0.853929
Spine1  1.86455 -2.93137 1.80976
HEad  -4.49929 -8.28659 6.07523
LeftShoulder1  1.61541 -12.7956 -2.06574
LeftArm  12.5136 -62.4023 -72.6472
LeftForeArm  62.181 6.95468 -11.9512
LeftHand  0.175831 8.6082 7.58139
RightShoulder  1.99544 7.88188 10.7259
RightArm  -17.8514 51.9593 62.8239
RightForeArm  88.7873 -3.68951 -1.30066
RightHand  0.819811 -9.37786 -23.8543
LeftUpLeg  -14.693 3.51088 10.0385
LeftLeg  43.948 -5.33706 -5.09209
LeftFoot  8.78166 3.42626 -19.4519
LeftToes  -1.90334e-010 -8.83595e-011 4.99953e-011
327
root  29.7789 42.6579 3.11279 2.92773 -2.884 -9.34296
RightUpLeg  -10.045 -10.851 1.44145
RightLeg  38.1904 4.97746 3.91614
RightFoot  6.62965 -3.50337 22.1915
RightToes  -1.11029e-010 1.2921e-014 -6.02303e-014
Spine  0.771478 -2.65198 -0.895841
Spine1  0.500317 -2.67876 1.82301
HEad  -6.30896 -8.39358 6.04998
LeftShoulder1  1.61108 -12.7412 -2.07399
LeftArm  11.9092 -62.0818 -71.3389
LeftForeArm  62.1623 6.95634 -11.958
LeftHand  0.173136 8.39391 7.96085
RightShoulder  2.00301 7.66574 11.1923
RightArm  -16.3533 51.9279 64.1414
RightForeArm  88.7427 -3.79795 -0.681346
RightHand  0.857396 -9.39515 -24.754
LeftUpLeg  -18.3301 3.86586 10.5704
LeftLeg  47.8406 -3.5067 -3.71873
LeftFoot  3.44754 2.37418 -18.3217
LeftToes  -1.90334e-010 -8.83595e-011 4.99953e-011
